<svg width="128" height="128" viewBox="0 0 128 128" fill="none" xmlns="http://www.w3.org/2000/svg">
<path d="M59.3899 0.152012C58.9059 0.203012 57.3949 0.382012 56.0619 0.539012C50.6879 1.15201 44.5939 2.76601 39.2459 5.01901C19.8909 13.106 5.32391 30.849 1.30491 51.2C0.358906 56.04 0.128906 58.418 0.128906 64C0.128906 71.195 0.843906 76.16 2.73891 82.434C8.93391 102.964 25.0619 119.066 45.6449 125.285C51.8399 127.156 56.8319 127.871 63.9999 127.871C71.1949 127.871 76.1599 127.156 82.4339 125.261C102.964 119.066 119.066 102.938 125.285 82.355C127.156 76.16 127.871 71.168 127.871 64C127.871 60.953 127.719 57.473 127.539 56.191C125.465 41.395 119.371 28.953 109.211 18.789C99.0699 8.70301 86.6799 2.58601 72.1899 0.512012C70.1939 0.230012 60.9519 -0.0279879 59.3899 0.152012ZM38.5269 40.472C39.8869 40.882 40.5229 41.266 41.4449 42.187C43.2379 44.007 43.6479 45.004 43.6479 47.742C43.6479 49.793 43.5699 50.176 42.9569 51.25C41.7769 53.246 39.0389 55.09 37.1449 55.14C35.8119 55.168 35.8669 54.578 37.3249 53.043C39.2699 51.02 39.5509 50.253 39.5509 47.23C39.5269 44.313 39.1679 43.316 37.8119 42.496C36.6839 41.805 35.4569 41.856 33.6639 42.699C29.0039 44.929 23.9609 52.352 21.9919 59.957C19.3789 70.094 24.0119 78.207 31.6409 76.824C33.8669 76.414 38.0659 74.266 39.8869 72.574C41.3949 71.195 41.3949 71.168 41.5469 69.454C41.8829 65.867 44.4139 62.285 47.7969 60.621C49.3549 59.851 49.7419 59.777 51.8399 59.777C53.8359 59.777 54.2969 59.879 55.2699 60.414C58.3669 62.184 57.7269 66.304 54.3749 66.304C52.4299 66.304 51.4299 65.304 52.8399 64.77C54.2229 64.258 53.7069 62.336 52.0979 61.902C50.2029 61.414 48.0509 62.695 46.6949 65.152C45.0549 68.122 44.9799 71.656 46.5389 73.266C48.0509 74.879 49.9449 73.602 51.4059 69.937C52.1719 68.07 53.2729 67.07 54.5549 67.07C55.6799 67.07 55.8869 67.762 55.3979 69.863C54.6799 73.113 55.1679 73.957 57.1909 72.961C57.8549 72.652 58.9569 71.938 59.6209 71.426L60.8749 70.426L61.7229 65.996C62.6449 61.031 62.9999 60.363 64.8949 60.008C66.7149 59.672 67.1249 60.57 66.4569 63.41L66.0969 65L67.4299 63.64C70.5779 60.414 74.4449 58.828 75.7769 60.16C76.4919 60.875 76.4139 61.773 75.3909 64.945C74.9059 66.457 74.2379 68.84 73.9339 70.195C73.4729 72.242 73.4449 72.73 73.7039 73.063C74.5239 74.035 77.0309 73.035 79.2579 70.859L80.5629 69.582L80.7189 66.738C80.8709 63.461 81.1759 62.285 82.0469 61.234C82.8669 60.262 84.3519 59.547 85.1449 59.75C85.9379 59.957 85.9379 60.723 85.2229 62.977C84.2229 66.074 84.3279 73.215 85.3519 73.215C85.7619 73.215 87.8589 71.015 89.1919 69.172L90.1879 67.812L89.3949 66.996C88.0119 65.536 87.6799 64.59 87.6799 62.207C87.6799 60.469 87.8089 59.828 88.2419 58.98C88.9609 57.652 90.0859 56.68 91.4179 56.293C92.8239 55.859 94.5659 56.574 95.2809 57.855C95.9999 59.16 95.8209 62.078 94.8979 64.078L94.2339 65.535H95.1289C96.3589 65.535 96.8439 65.23 99.0469 63.156C100.199 62.055 101.531 61.106 102.527 60.645C106.445 58.805 111.055 59.75 111.82 62.566C112.46 64.82 111.055 66.406 108.594 66.226C106.828 66.098 106.496 65.636 107.52 64.77C109.363 63.23 107.52 61.262 104.883 61.977C103.449 62.363 101.836 63.973 100.993 65.844C99.3009 69.582 100.199 73.984 102.629 73.984C103.602 73.984 105.32 72.063 105.984 70.195C106.777 68.043 108.441 66.688 109.695 67.175C110.387 67.43 110.438 68.121 110.004 70.297C109.516 72.68 109.441 74.907 109.824 75.93C109.977 76.312 110.438 77.031 110.875 77.516C111.691 78.437 111.719 78.77 111.027 79.207C110.695 79.437 110.257 79.336 109.184 78.747C107.699 77.977 106.418 76.594 105.957 75.289L105.676 74.523L104.652 75.289C104.062 75.699 103.141 76.16 102.605 76.312C100.48 76.875 97.8669 75.418 96.6409 72.961C96.1519 72.011 95.9999 69.223 96.3589 68.148C96.5629 67.558 96.5629 67.558 95.7419 67.968C95.3089 68.199 94.3869 68.453 93.6719 68.531C92.4919 68.661 92.3119 68.789 91.1369 70.273C89.4729 72.343 86.5269 75.137 85.3239 75.727C82.7659 77.004 81.9219 76.645 81.2539 74.007L80.7929 72.242L79.6909 73.215C78.2849 74.445 75.4689 75.93 73.8549 76.289C72.3199 76.621 70.6799 76.133 70.0149 75.109C69.0199 73.574 69.3519 70.324 70.9369 65.945C72.1129 62.695 71.2699 62.645 68.3009 65.742C66.0979 68.07 65.1519 69.734 64.5389 72.32C63.8989 75.008 63.1289 75.98 61.3909 76.39C60.3399 76.621 59.8509 75.98 60.0589 74.574L60.2109 73.445L59.2379 74.113C57.8549 75.059 56.1129 75.93 54.9099 76.262C53.7069 76.594 52.1209 76.238 51.7379 75.57C51.0469 74.395 51.0469 74.395 49.9729 75.238C47.6409 77.133 44.3129 76.594 42.6249 74.086L42.0849 73.293L40.3979 74.855C35.5309 79.309 29.4409 81.305 24.9339 79.922C19.1989 78.184 16.0269 73.266 16.0779 66.176C16.1019 59.059 19.2499 51.559 24.5509 46.004C27.5469 42.879 30.3629 41.035 33.2309 40.344C35.3009 39.832 36.5589 39.858 38.5269 40.472Z" fill="#00C4CC"/>
<path d="M90.4179 58.676C89.8549 59.238 90.0619 61.492 90.7779 62.926C91.1369 63.668 91.5199 64.258 91.6479 64.258C91.7499 64.258 91.9799 63.668 92.1599 62.949C92.7999 60.289 91.6479 57.445 90.4179 58.676Z" fill="#00C4CC"/>
</svg>
