<svg width="112" height="126" viewBox="0 0 112 126" fill="none" xmlns="http://www.w3.org/2000/svg">
<path d="M10.8138 113.123L0.759766 0.352051H111.24L101.176 113.106L55.9328 125.649L10.8138 113.123Z" fill="#1572B6"/>
<path d="M56.0008 116.062L92.5598 105.926L101.161 9.57205H56.0008V116.062Z" fill="#33A9DC"/>
<path d="M56.0008 50.4291H74.3028L75.5668 36.266H56.0008V22.4351H90.6828L86.9508 64.2601H56.0008V50.4291Z" fill="white"/>
<path d="M56.0828 86.3491L56.0218 86.3671L40.6188 82.2081L39.6338 71.1771H25.7518L27.6888 92.8941L56.0198 100.757L56.0828 100.739V86.3491Z" fill="#EBEBEB"/>
<path d="M73.1268 63.6751L71.4608 82.1971L56.0348 86.3611V100.751L84.3888 92.8931L87.0028 63.6751H73.1268Z" fill="white"/>
<path d="M56.0478 22.4351V36.266H22.6398L21.4018 22.4351H56.0478ZM56.0008 50.431V64.2621H40.7918L39.8838 54.142L39.5538 50.431H56.0008Z" fill="#EBEBEB"/>
</svg>
