<svg width="120" height="120" viewBox="0 0 120 120" fill="none" xmlns="http://www.w3.org/2000/svg">
<path fill-rule="evenodd" clip-rule="evenodd" d="M59.9966 0.0207619C26.8669 0.0207619 0 27.561 0 61.531C0 88.7104 17.1893 111.76 41.0291 119.897C44.0298 120.467 45.1327 118.56 45.1327 116.934C45.1327 115.467 45.0728 110.622 45.0485 105.487C28.3553 109.208 24.8363 98.2257 24.8363 98.2257C22.1079 91.1146 18.1748 89.2235 18.1748 89.2235C12.7314 85.4022 18.589 85.4862 18.589 85.4862C24.6125 85.9178 27.7838 91.8209 27.7838 91.8209C33.1387 101.225 41.8241 98.5027 45.2455 96.9337C45.7859 92.9583 47.3361 90.2429 49.0545 88.7058C35.7273 87.1551 21.7181 81.8787 21.7181 58.307C21.7181 51.5933 24.0655 46.1034 27.8989 41.7985C27.2745 40.2457 25.2194 33.9929 28.477 25.5218C28.477 25.5218 33.515 23.8668 44.9821 31.8269C49.7655 30.4669 54.8965 29.7812 59.9923 29.7585C65.0922 29.7812 70.2322 30.4646 75.0224 31.8269C86.4739 23.8714 91.5075 25.5218 91.5075 25.5218C94.7695 33.9952 92.7234 40.2524 92.0988 41.7987C95.9455 46.1034 98.2731 51.5933 98.2731 58.307C98.2731 81.9331 84.2328 87.1276 70.8767 88.6512C73.0293 90.5583 74.9515 94.3023 74.9515 100.037C74.9515 108.263 74.8829 114.893 74.8829 116.916C74.8829 118.553 75.9636 120.467 79.0063 119.867C102.833 111.726 120 88.6737 120 61.5105C120 27.5448 93.1376 0 60.0011 0L59.9968 0.0205682L59.9966 0.0207619Z" fill="#CAFD36"/>
</svg>
