<svg width="128" height="127" viewBox="0 0 128 127" fill="none" xmlns="http://www.w3.org/2000/svg">
<path fill-rule="evenodd" clip-rule="evenodd" d="M64.0001 0.511963C40.5071 0.511963 21.4551 19.559 21.4551 43.057C21.4551 61.854 33.6451 77.802 50.5501 83.427C52.6761 83.821 53.4571 82.504 53.4571 81.38C53.4571 80.366 53.4171 77.014 53.3991 73.46C41.5621 76.033 39.0651 68.44 39.0651 68.44C37.1301 63.522 34.3411 62.214 34.3411 62.214C30.4811 59.574 34.6311 59.628 34.6311 59.628C38.9041 59.928 41.1541 64.013 41.1541 64.013C44.9481 70.517 51.1071 68.636 53.5341 67.549C53.9171 64.799 55.0191 62.921 56.2361 61.859C46.7861 60.784 36.8521 57.135 36.8521 40.833C36.8521 36.188 38.5141 32.393 41.2361 29.413C40.7941 28.341 39.3381 24.013 41.6481 18.153C41.6481 18.153 45.2201 17.011 53.3481 22.516C56.7431 21.573 60.3831 21.1 63.9981 21.084C67.6141 21.101 71.2561 21.574 74.6561 22.516C82.7761 17.012 86.3441 18.154 86.3441 18.154C88.6601 24.014 87.2041 28.341 86.7621 29.414C89.4901 32.392 91.1401 36.188 91.1401 40.834C91.1401 57.174 81.1871 60.772 71.7131 61.824C73.2391 63.144 74.5991 65.734 74.5991 69.704C74.5991 75.396 74.5511 79.977 74.5511 81.378C74.5511 82.508 75.3171 83.836 77.4731 83.418C94.3691 77.786 106.543 61.844 106.543 43.053C106.545 19.56 87.4971 0.511963 64.0001 0.511963Z" fill="white"/>
<path d="M37.5701 61.596C37.4751 61.808 37.1421 61.871 36.8401 61.726C36.5301 61.586 36.3581 61.299 36.4581 61.086C36.5481 60.87 36.8821 60.809 37.1911 60.954C37.5011 61.094 37.6761 61.384 37.5701 61.596ZM39.2931 63.52C39.0901 63.707 38.6931 63.62 38.4231 63.322C38.1451 63.025 38.0931 62.628 38.2991 62.438C38.5071 62.25 38.8921 62.338 39.1691 62.635C39.4491 62.935 39.5041 63.328 39.2921 63.519L39.2931 63.52ZM40.9701 65.968C40.7101 66.15 40.2831 65.98 40.0201 65.601C39.7581 65.224 39.7581 64.771 40.0251 64.588C40.2891 64.406 40.7091 64.57 40.9751 64.945C41.2371 65.33 41.2371 65.784 40.9701 65.968ZM43.2681 68.336C43.0351 68.593 42.5381 68.524 42.1751 68.173C41.8031 67.83 41.7001 67.343 41.9331 67.086C42.1701 66.829 42.6691 66.901 43.0351 67.249C43.4051 67.591 43.5171 68.08 43.2681 68.336ZM46.4401 69.71C46.3361 70.044 45.8581 70.195 45.3761 70.054C44.8941 69.908 44.5801 69.518 44.6761 69.182C44.7761 68.846 45.2581 68.689 45.7431 68.84C46.2231 68.984 46.5391 69.37 46.4401 69.71ZM49.9201 69.965C49.9331 70.315 49.5241 70.607 49.0181 70.613C48.5101 70.625 48.0981 70.341 48.0921 69.995C48.0921 69.641 48.4921 69.353 49.0001 69.345C49.5061 69.335 49.9201 69.617 49.9201 69.965ZM53.1601 69.414C53.2201 69.756 52.8701 70.108 52.3671 70.201C51.8731 70.293 51.4171 70.081 51.3531 69.741C51.2931 69.391 51.6501 69.041 52.1431 68.949C52.6461 68.861 53.0961 69.066 53.1601 69.414Z" fill="white"/>
<path d="M24.8551 107.302H14.1551C14.0225 107.302 13.8953 107.355 13.8016 107.448C13.7078 107.542 13.6551 107.669 13.6551 107.802V113.034C13.6551 113.167 13.7078 113.294 13.8016 113.388C13.8953 113.481 14.0225 113.534 14.1551 113.534H18.3281V120.034C18.3281 120.034 17.3911 120.354 14.7981 120.354C11.7421 120.354 7.47113 119.238 7.47113 109.846C7.47113 100.453 11.9191 99.216 16.0951 99.216C19.7091 99.216 21.2651 99.852 22.2571 100.159C22.5671 100.253 22.8571 99.943 22.8571 99.667L24.0501 94.612C24.0521 94.5363 24.0356 94.4612 24.0022 94.3933C23.9687 94.3254 23.9193 94.2666 23.8581 94.222C23.4551 93.934 21.0011 92.562 14.8001 92.562C7.65613 92.562 0.328125 95.6 0.328125 110.212C0.328125 124.822 8.71812 126.999 15.7881 126.999C21.6421 126.999 25.1931 124.497 25.1931 124.497C25.3391 124.417 25.3551 124.212 25.3551 124.117V107.801C25.3551 107.668 25.3024 107.541 25.2087 107.447C25.1149 107.354 24.9877 107.302 24.8551 107.302ZM79.5061 93.81H73.4801C73.4144 93.8102 73.3493 93.8235 73.2887 93.8489C73.2281 93.8743 73.1731 93.9115 73.1268 93.9582C73.0805 94.0049 73.044 94.0603 73.0191 94.1212C72.9943 94.182 72.9817 94.2472 72.9821 94.313L72.9841 105.957H63.5921V94.313C63.5925 94.2473 63.58 94.1822 63.5552 94.1214C63.5305 94.0606 63.494 94.0052 63.4478 93.9585C63.4017 93.9118 63.3468 93.8747 63.2862 93.8492C63.2257 93.8237 63.1608 93.8104 63.0951 93.81H57.0701C57.0044 93.8102 56.9393 93.8235 56.8787 93.8489C56.8181 93.8743 56.7631 93.9115 56.7168 93.9582C56.6705 94.0049 56.634 94.0603 56.6091 94.1212C56.5843 94.182 56.5717 94.2472 56.5721 94.313V125.843C56.5721 126.12 56.7961 126.346 57.0701 126.346H63.0951C63.1609 126.346 63.2259 126.332 63.2865 126.307C63.3471 126.281 63.402 126.244 63.4482 126.197C63.4943 126.15 63.5308 126.095 63.5555 126.034C63.5802 125.973 63.5927 125.908 63.5921 125.842V112.356H72.9841L72.9681 125.842C72.9681 126.12 73.1921 126.346 73.4681 126.346H79.5061C79.5719 126.346 79.6369 126.332 79.6975 126.307C79.758 126.281 79.813 126.244 79.8592 126.197C79.9053 126.15 79.9418 126.095 79.9665 126.034C79.9912 125.973 80.0036 125.908 80.0031 125.842V94.312C80.0038 94.2463 79.9914 94.1811 79.9667 94.1202C79.9421 94.0594 79.9056 94.004 79.8593 93.9573C79.8131 93.9106 79.7581 93.8736 79.6975 93.8483C79.6369 93.823 79.5718 93.81 79.5061 93.81ZM32.3401 94.527C30.1961 94.527 28.4561 96.28 28.4561 98.45C28.4561 100.617 30.1961 102.375 32.3401 102.375C34.4861 102.375 36.2251 100.617 36.2251 98.45C36.2251 96.28 34.4851 94.527 32.3401 94.527ZM35.2961 104.135H29.2901C29.0141 104.135 28.7681 104.419 28.7681 104.695V125.547C28.7681 126.16 29.1501 126.342 29.6441 126.342H35.0541C35.6491 126.342 35.7941 126.05 35.7941 125.537V104.638C35.7944 104.572 35.7817 104.507 35.7568 104.446C35.7319 104.386 35.6953 104.33 35.6491 104.284C35.6028 104.237 35.5479 104.2 35.4873 104.175C35.4268 104.149 35.3618 104.135 35.2961 104.135ZM102.902 104.182H96.9221C96.8565 104.182 96.7915 104.196 96.7311 104.222C96.6706 104.247 96.6158 104.284 96.5697 104.331C96.5237 104.378 96.4873 104.433 96.4626 104.494C96.438 104.555 96.4256 104.62 96.4261 104.686V120.146C96.4261 120.146 94.9061 121.256 92.7511 121.256C90.5961 121.256 90.0241 120.279 90.0241 118.168V104.686C90.0247 104.62 90.0122 104.555 89.9875 104.494C89.9628 104.433 89.9263 104.378 89.8802 104.331C89.834 104.284 89.779 104.247 89.7185 104.221C89.6579 104.196 89.5929 104.182 89.5271 104.182H83.4591C83.3263 104.183 83.1994 104.237 83.106 104.331C83.0127 104.426 82.9606 104.553 82.9611 104.686V119.188C82.9611 125.458 86.4561 126.992 91.2631 126.992C95.2071 126.992 98.3871 124.812 98.3871 124.812C98.3871 124.812 98.5371 125.962 98.6071 126.097C98.6771 126.233 98.8541 126.37 99.0471 126.37L102.907 126.353C102.973 126.353 103.038 126.339 103.099 126.314C103.16 126.289 103.215 126.251 103.262 126.205C103.308 126.158 103.345 126.102 103.37 126.041C103.395 125.98 103.407 125.915 103.407 125.849L103.404 104.683C103.404 104.55 103.351 104.423 103.257 104.329C103.164 104.235 103.037 104.182 102.904 104.181L102.902 104.182ZM119.244 103.474C115.848 103.474 113.538 104.989 113.538 104.989V94.312C113.539 94.2463 113.526 94.1812 113.501 94.1204C113.476 94.0596 113.44 94.0042 113.394 93.9575C113.348 93.9108 113.293 93.8737 113.232 93.8482C113.172 93.8227 113.107 93.8094 113.041 93.809H107C106.934 93.809 106.869 93.822 106.808 93.8473C106.747 93.8726 106.692 93.9097 106.646 93.9565C106.599 94.0032 106.562 94.0587 106.537 94.1197C106.512 94.1807 106.5 94.246 106.5 94.312V125.842C106.5 125.908 106.512 125.973 106.537 126.034C106.562 126.095 106.599 126.151 106.646 126.197C106.692 126.244 106.747 126.281 106.808 126.307C106.869 126.332 106.934 126.345 107 126.345H111.192C111.382 126.345 111.524 126.248 111.629 126.077C111.732 125.907 111.883 124.623 111.883 124.623C111.883 124.623 114.353 126.963 119.031 126.963C124.521 126.963 127.671 124.179 127.671 114.461C127.671 104.743 122.641 103.473 119.243 103.473L119.244 103.474ZM116.884 121.238C114.811 121.175 113.404 120.234 113.404 120.234V110.249C113.404 110.249 114.792 109.399 116.494 109.245C118.647 109.052 120.722 109.703 120.722 114.839C120.722 120.256 119.787 121.325 116.885 121.237L116.884 121.238ZM53.1951 121.12C52.9321 121.12 52.2581 121.227 51.5651 121.227C49.3451 121.227 48.5921 120.195 48.5921 118.859V109.993H53.1121C53.1781 109.993 53.2435 109.98 53.3044 109.955C53.3653 109.929 53.4206 109.892 53.4671 109.845C53.5136 109.798 53.5503 109.743 53.5752 109.682C53.6001 109.62 53.6127 109.555 53.6121 109.489V104.633C53.6124 104.567 53.5997 104.502 53.5746 104.441C53.5496 104.38 53.5128 104.325 53.4664 104.278C53.4199 104.231 53.3647 104.194 53.3039 104.169C53.2431 104.144 53.178 104.131 53.1121 104.131H48.5921L48.5851 98.161C48.5851 97.934 48.4691 97.821 48.2071 97.821H42.0471C41.8091 97.821 41.6801 97.927 41.6801 98.156V104.326C41.6801 104.326 38.5931 105.071 38.3851 105.131C38.2813 105.161 38.19 105.224 38.1251 105.311C38.0602 105.398 38.0251 105.503 38.0251 105.611V109.488C38.0247 109.554 38.0373 109.619 38.062 109.68C38.0868 109.74 38.1233 109.796 38.1694 109.842C38.2156 109.889 38.2705 109.926 38.331 109.952C38.3915 109.977 38.4565 109.991 38.5221 109.991H41.6801V119.319C41.6801 126.249 46.5401 126.929 49.8201 126.929C51.3171 126.929 53.1101 126.449 53.4061 126.339C53.5861 126.272 53.6891 126.087 53.6891 125.886L53.6931 121.621C53.6911 121.489 53.6378 121.363 53.5445 121.269C53.4513 121.175 53.3253 121.122 53.1931 121.119L53.1951 121.12Z" fill="white"/>
</svg>
