<svg width="110" height="125" viewBox="0 0 110 125" fill="none" xmlns="http://www.w3.org/2000/svg">
<path d="M24.2612 65.5H71.4115L69.8895 82.1809L54.8779 85.9692L54.5002 86.0645V86.3605L40.137 82.5261L39.1892 71.9554L39.1484 71.5H38.6912H24.8762H24.3291L24.3782 72.0449L26.2913 93.2509L26.3228 93.6002L26.6619 93.6895L54.8388 101.113L55.0276 101.162L55.1935 101.074L83.3287 93.3421L83.6579 93.2517L83.6935 92.9121L83.9316 90.6421L83.9322 90.6346L87.1649 54.5192L87.1652 54.5156L87.5009 51.0482L87.554 50.5H87.0032H37.3043L36.1371 37.5H88.2552H88.715L88.7535 37.0418L89.0293 33.7545L89.0295 33.7528L89.6561 26.5854L89.6563 26.5825L89.9861 23.0464L90.037 22.5H89.4882H20.5492H20.0051L20.051 23.0422L20.38 26.9252L20.3802 26.9272L23.7632 65.0442L23.8036 65.5H24.2612ZM10.5044 111.703L0.578842 0.5H109.422L99.4861 111.717L54.9335 123.975L10.5044 111.703Z" fill="#CAFD36" stroke="black"/>
</svg>
