<svg width="110" height="126" viewBox="0 0 110 126" fill="none" xmlns="http://www.w3.org/2000/svg">
<path d="M10.0372 112.876L0.0322266 0.660889H109.968L99.9522 112.859L54.9332 125.339L10.0372 112.876Z" fill="#E44D26"/>
<path d="M55.0002 115.8L91.3782 105.714L99.9372 9.83589H55.0002V115.8Z" fill="#F16529"/>
<path d="M55.0002 51.4549H36.7882L35.5302 37.3609H55.0002V23.5989H20.4892L24.2012 65.2179H55.0002V51.4549ZM55.0002 87.1979L54.9392 87.2149L39.6122 83.0749L38.6332 72.0999H24.8162L26.7442 93.7089L54.9372 101.535L55.0002 101.518V87.1979Z" fill="#EBEBEB"/>
<path d="M54.9522 51.4549V65.2179H71.8992L70.3022 83.0669L54.9522 87.2099V101.529L83.1672 93.7089L86.6082 55.1509L86.9432 51.4549H54.9522ZM54.9522 23.5989V37.3609H88.1962L89.4292 23.5989H54.9522Z" fill="white"/>
</svg>
