<svg width="126" height="126" viewBox="0 0 126 126" fill="none" xmlns="http://www.w3.org/2000/svg">
<path d="M0.408203 0.407959H125.592V125.593H0.408203V0.407959Z" fill="#F0DB4F"/>
<path d="M115.347 95.736C114.43 90.025 110.706 85.228 99.6752 80.755C95.8432 78.994 91.5712 77.733 90.2982 74.829C89.8462 73.139 89.7862 72.187 90.0722 71.164C90.8932 67.844 94.8562 66.809 97.9972 67.761C100.02 68.439 101.935 69.998 103.09 72.485C108.492 68.987 108.481 69.01 112.253 66.606C110.872 64.465 110.135 63.477 109.231 62.561C105.982 58.932 101.555 57.063 94.4752 57.206L90.7872 57.683C87.2532 58.576 83.8852 60.431 81.9102 62.918C75.9842 69.642 77.6742 81.41 84.8852 86.253C91.9892 91.585 102.425 92.798 103.758 97.784C105.055 103.888 99.2722 105.864 93.5242 105.162C89.2882 104.281 86.9322 102.128 84.3852 98.213C79.6972 100.926 79.6972 100.926 74.8772 103.698C76.0202 106.197 77.2212 107.328 79.1372 109.493C88.2052 118.691 110.897 118.239 114.967 104.317C115.132 103.839 116.228 100.651 115.347 95.736ZM68.4622 57.943H56.7532L56.7052 88.215C56.7052 94.653 57.0382 100.555 55.9912 102.364C54.2782 105.922 49.8392 105.481 47.8162 104.791C45.7572 103.779 44.7102 102.34 43.4972 100.306C43.1642 99.722 42.9142 99.27 42.8302 99.235L33.3102 105.065C34.8932 108.314 37.2252 111.134 40.2122 112.966C44.6742 115.644 50.6712 116.465 56.9432 115.025C61.0252 113.836 64.5472 111.373 66.3912 107.624C69.0572 102.709 68.4852 96.76 68.4612 90.18C68.5212 79.445 68.4622 68.712 68.4622 57.943Z" fill="#323330"/>
</svg>
