<svg width="122" height="122" viewBox="0 0 122 122" fill="none" xmlns="http://www.w3.org/2000/svg">
<path d="M113 -2.62805e-05H9C6.64031 -0.0240411 4.36747 0.889018 2.68019 2.5388C0.992909 4.18859 0.0290113 6.44034 0 8.79997V113.22C0.0342578 115.576 1.00046 117.823 2.68717 119.468C4.37388 121.114 6.64373 122.024 9 122H113C115.36 122.019 117.631 121.103 119.318 119.452C121.004 117.801 121.968 115.55 122 113.19V8.76997C121.958 6.41726 120.989 4.17624 119.304 2.53403C117.618 0.891819 115.353 -0.0188479 113 -2.62805e-05ZM36.17 104H18.06V45.73H36.17V104ZM27.17 37.79C25.0929 37.792 23.0618 37.1778 21.3338 36.0253C19.6058 34.8727 18.2584 33.2335 17.4621 31.3151C16.6659 29.3966 16.4565 27.2851 16.8605 25.2477C17.2646 23.2102 18.2638 21.3383 19.7318 19.8689C21.1999 18.3994 23.0708 17.3984 25.1079 16.9925C27.1449 16.5865 29.2567 16.7939 31.1759 17.5883C33.0951 18.3827 34.7355 19.7285 35.8897 21.4554C37.0439 23.1824 37.66 25.2128 37.66 27.29C37.6574 28.6705 37.3825 30.037 36.8512 31.3113C36.3198 32.5855 35.5424 33.7424 34.5634 34.7158C33.5844 35.6893 32.4231 36.4601 31.1458 36.9841C29.8686 37.5082 28.5006 37.7752 27.12 37.77L27.17 37.79ZM104 104H85.89V75.65C85.89 68.9 85.77 60.21 76.48 60.21C67.19 60.21 65.61 67.57 65.61 75.21V104H47.53V45.73H64.89V53.73H65.13C67.55 49.15 73.45 44.32 82.26 44.32C100.6 44.28 104 56.35 104 72V104Z" fill="#CAFD36"/>
</svg>
