<svg width="182" height="110" viewBox="0 0 182 110" fill="none" xmlns="http://www.w3.org/2000/svg">
<path d="M10.9016 107.224C1.16423 102.356 -2.78377 90.5143 2.08557 80.7769L37.0229 10.9023C41.8922 1.16361 53.7322 -2.78305 63.4696 2.08495C73.2069 6.95428 77.1549 18.7956 72.2869 28.5329L37.3482 98.4089C32.4802 108.145 20.6389 112.092 10.9016 107.224Z" fill="#CAFD36"/>
<path d="M73.3273 107.224C63.5886 102.356 59.642 90.5143 64.5113 80.7769L99.4486 10.9023C104.317 1.16361 116.158 -2.78305 125.895 2.08495C135.633 6.95428 139.581 18.7956 134.711 28.5329L99.774 98.4089C94.906 108.145 83.0646 112.092 73.3273 107.224Z" fill="#CAFD36"/>
<path d="M181.75 80.9398C181.75 95.4558 169.982 107.224 155.466 107.224C140.949 107.224 129.182 95.4558 129.182 80.9398C129.182 66.4224 140.949 54.6544 155.466 54.6544C169.982 54.6544 181.75 66.4224 181.75 80.9398Z" fill="#CAFD36"/>
</svg>
