<svg width="127" height="124" viewBox="0 0 127 124" fill="none" xmlns="http://www.w3.org/2000/svg">
<path d="M0.000999928 114.17H4.109V97.947L10.469 112.09C11.219 113.802 12.246 114.407 14.261 114.407C16.276 114.407 17.264 113.802 18.014 112.09L24.374 97.947V114.17H28.482V97.974C28.482 96.394 27.85 95.629 26.546 95.235C23.425 94.261 21.331 95.104 20.383 97.211L14.142 111.169L8.099 97.21C7.19 95.104 5.057 94.261 1.936 95.234C0.632 95.629 0 96.393 0 97.973L0.000999928 114.17ZM31.899 100.964H36.006V109.902C35.968 110.387 36.162 111.527 38.412 111.563C39.56 111.581 47.274 111.563 47.346 111.563V100.92H51.463C51.482 100.92 51.459 115.434 51.459 115.494C51.481 119.074 47.018 119.851 44.96 119.911H31.988V117.147C32.01 117.147 44.951 117.15 44.983 117.146C47.628 116.867 47.315 115.553 47.314 115.111V114.033H38.583C34.521 113.996 31.933 112.223 31.9 110.183C31.898 109.996 31.989 101.054 31.899 100.964ZM54.63 114.17H66.442C67.825 114.17 69.169 113.881 70.235 113.381C72.012 112.565 72.881 111.459 72.881 110.009V107.007C72.881 105.822 71.894 104.715 69.958 103.979C68.931 103.583 67.666 103.374 66.441 103.374H61.463C59.804 103.374 59.014 102.874 58.817 101.768C58.778 101.636 58.778 101.531 58.778 101.399V99.529C58.778 99.424 58.778 99.318 58.817 99.187C59.014 98.344 59.449 98.107 60.911 97.975L61.306 97.949H73.039V95.211H61.504C59.845 95.211 58.976 95.316 58.186 95.553C55.737 96.317 54.669 97.528 54.669 99.635V102.031C54.669 103.875 56.764 105.455 60.279 105.824C60.675 105.849 61.069 105.877 61.464 105.877H65.731C65.889 105.877 66.047 105.877 66.166 105.902C67.47 106.007 68.022 106.245 68.418 106.718C68.5195 106.812 68.6 106.926 68.6543 107.053C68.7086 107.18 68.7354 107.317 68.733 107.455V109.852C68.733 110.141 68.536 110.51 68.141 110.826C67.786 111.142 67.193 111.353 66.403 111.406L65.968 111.432H54.63V114.17ZM98.511 109.404C98.511 112.221 100.605 113.801 104.831 114.118C105.226 114.144 105.621 114.17 106.016 114.17H116.722V111.432H105.938C103.528 111.432 102.62 110.826 102.62 109.377V95.209H98.512L98.511 109.404ZM75.503 109.546V99.781C75.503 97.301 77.245 95.796 80.689 95.321C81.056 95.2684 81.4263 95.242 81.797 95.242H89.596C89.992 95.242 90.348 95.268 90.743 95.321C94.187 95.796 95.93 97.3 95.93 99.781V109.546C95.93 111.56 95.19 112.636 93.485 113.338L97.533 116.991H92.762L89.488 114.035L86.192 114.244H81.797C80.9806 114.239 80.1686 114.123 79.383 113.901C76.77 113.189 75.503 111.816 75.503 109.546ZM79.938 109.309C79.938 109.441 79.977 109.574 80.017 109.732C80.254 110.867 81.324 111.5 82.946 111.5H86.678L83.25 108.405H88.021L91.01 111.105C91.562 110.81 91.924 110.362 92.051 109.785C92.09 109.653 92.09 109.521 92.09 109.389V100.021C92.09 99.916 92.09 99.783 92.051 99.651C91.813 98.595 90.744 97.989 89.161 97.989H82.945C81.125 97.989 79.937 98.781 79.937 100.021V109.309H79.938ZM120.336 90.664C117.811 90.595 115.882 90.83 114.232 91.525C113.763 91.723 113.016 91.728 112.94 92.315C113.197 92.586 113.237 92.989 113.442 93.321C113.836 93.958 114.501 94.812 115.094 95.259C115.741 95.748 116.409 96.272 117.105 96.696C118.34 97.45 119.72 97.88 120.911 98.634C121.612 99.08 122.308 99.64 122.993 100.143C123.332 100.39 123.558 100.777 123.999 100.932V100.861C123.768 100.567 123.708 100.163 123.496 99.855L122.562 98.921C121.649 97.709 120.491 96.646 119.258 95.762C118.276 95.057 116.078 94.104 115.668 92.961L115.596 92.89C116.292 92.811 117.108 92.559 117.75 92.387C118.83 92.097 119.795 92.172 120.91 91.884L122.418 91.452V91.166C121.855 90.588 121.452 89.822 120.838 89.299C119.231 87.93 117.475 86.562 115.668 85.42C114.666 84.788 113.427 84.377 112.364 83.841C112.008 83.66 111.38 83.567 111.143 83.266C110.584 82.555 110.281 81.654 109.85 80.825C108.93 79.0341 108.067 77.2138 107.265 75.367C106.721 74.122 106.365 72.894 105.686 71.777C102.425 66.416 98.915 63.18 93.478 60C92.321 59.323 90.928 59.057 89.457 58.708L87.087 58.564C86.606 58.363 86.104 57.773 85.651 57.487C83.849 56.349 79.229 53.874 77.895 57.129C77.053 59.183 79.155 61.187 79.906 62.228C80.433 62.958 81.109 63.776 81.486 64.597C81.734 65.137 81.776 65.678 81.989 66.249C82.51 67.655 82.965 69.186 83.64 70.485C83.981 71.143 84.358 71.836 84.789 72.424C85.053 72.784 85.507 72.944 85.578 73.501C85.135 74.121 85.109 75.085 84.86 75.87C83.738 79.409 84.161 83.808 85.794 86.427C86.295 87.232 87.475 88.956 89.097 88.294C90.516 87.716 90.2 85.925 90.606 84.344C90.698 83.987 90.641 83.723 90.821 83.483V83.555L92.114 86.14C93.071 87.681 94.768 89.29 96.207 90.377C96.953 90.94 97.541 91.915 98.505 92.244V92.171H98.434C98.246 91.88 97.955 91.76 97.715 91.525C97.153 90.974 96.528 90.29 96.064 89.658C94.755 87.882 93.599 85.937 92.545 83.913C92.042 82.947 91.605 81.881 91.181 80.897C91.017 80.518 91.019 79.944 90.679 79.749C90.213 80.469 89.53 81.052 89.17 81.903C88.596 83.263 88.522 84.922 88.309 86.642L88.165 86.713C87.164 86.472 86.813 85.442 86.441 84.559C85.501 82.326 85.326 78.729 86.154 76.158C86.368 75.492 87.335 73.397 86.943 72.782C86.756 72.169 86.139 71.815 85.795 71.345C85.3437 70.7161 84.9586 70.0422 84.646 69.334C83.876 67.593 83.517 65.638 82.708 63.877C82.32 63.035 81.666 62.184 81.128 61.436C80.533 60.606 79.866 59.996 79.404 58.994C79.24 58.638 79.017 58.067 79.26 57.701C79.337 57.454 79.448 57.351 79.692 57.27C80.108 56.949 81.268 57.377 81.702 57.557C82.854 58.036 83.815 58.491 84.791 59.137C85.259 59.448 85.732 60.048 86.299 60.214H86.945C87.956 60.446 89.089 60.285 90.033 60.572C91.703 61.08 93.199 61.869 94.557 62.727C98.696 65.341 102.079 69.061 104.395 73.499C104.767 74.214 104.929 74.895 105.256 75.653C105.918 77.181 106.752 78.754 107.41 80.249C108.067 81.74 108.708 83.245 109.637 84.486C110.125 85.138 112.011 85.488 112.868 85.85C113.469 86.104 114.453 86.369 115.022 86.711C116.109 87.367 117.163 88.148 118.182 88.866C118.691 89.228 120.258 90.015 120.336 90.664ZM88.237 63.305C87.8016 63.2979 87.3671 63.3463 86.944 63.449V63.52H87.016C87.267 64.037 87.71 64.369 88.021 64.813L88.74 66.321L88.811 66.25C89.256 65.937 89.459 65.436 89.457 64.67C89.278 64.482 89.252 64.247 89.098 64.024C88.894 63.724 88.496 63.556 88.237 63.305Z" fill="#7BD6FC"/>
<path d="M116.948 95.519C110.085 95.332 104.844 95.971 100.363 97.86C99.0899 98.397 97.0579 98.412 96.8499 100.007C97.5499 100.74 97.6589 101.836 98.2149 102.738C99.2849 104.468 101.091 106.79 102.703 108.006C104.465 109.336 106.28 110.757 108.168 111.908C111.526 113.955 115.275 115.125 118.508 117.176C120.414 118.386 122.307 119.909 124.166 121.273C125.086 121.948 125.703 122.997 126.898 123.42V123.226C126.27 122.426 126.108 121.328 125.532 120.493L122.995 117.956C120.515 114.664 117.366 111.772 114.019 109.371C111.35 107.455 105.377 104.867 104.264 101.762L104.069 101.567C105.961 101.353 108.176 100.669 109.923 100.2C112.857 99.414 115.479 99.617 118.508 98.835L122.605 97.664V96.884C121.074 95.313 119.982 93.233 118.313 91.811C113.943 88.091 109.175 84.374 104.265 81.274C101.541 79.556 98.1759 78.439 95.2889 76.982C94.3179 76.491 92.6119 76.236 91.9709 75.42C90.4539 73.488 89.6289 71.038 88.4599 68.787C86.0109 64.07 83.6059 58.919 81.4359 53.956C79.9559 50.572 78.9889 47.236 77.1429 44.2C68.2829 29.633 58.7469 20.842 43.9739 12.2C40.8299 10.362 37.0449 9.637 33.0449 8.687C30.8999 8.558 28.7529 8.427 26.6069 8.296C25.2959 7.75 23.9339 6.147 22.7049 5.369C17.8109 2.277 5.25687 -4.448 1.63287 4.394C-0.656129 9.975 5.05387 15.419 7.09487 18.248C8.52887 20.23 10.3639 22.455 11.3879 24.686C12.0619 26.153 12.1779 27.624 12.7549 29.175C14.1719 32.997 15.4069 37.155 17.2419 40.686C18.1689 42.474 19.1909 44.356 20.3639 45.954C21.0819 46.935 22.3149 47.367 22.5089 48.881C21.3049 50.567 21.2359 53.185 20.5589 55.321C17.5089 64.936 18.6599 76.888 23.0959 84.004C24.4559 86.19 27.6629 90.875 32.0709 89.077C35.9269 87.507 35.0659 82.639 36.1689 78.345C36.4179 77.372 36.2649 76.656 36.7539 76.004V76.199L40.2669 83.223C42.8669 87.41 47.4789 91.785 51.3889 94.737C53.4159 96.268 55.0119 98.914 57.6329 99.81V99.614H57.4379C56.9299 98.823 56.1349 98.495 55.4869 97.859C53.9599 96.362 52.2619 94.501 50.9999 92.786C47.4439 87.959 44.3019 82.676 41.4389 77.177C40.0709 74.55 38.8819 71.654 37.7299 68.981C37.2859 67.951 37.2919 66.392 36.3659 65.859C35.1029 67.817 33.2439 69.401 32.2679 71.713C30.7069 75.409 30.5059 79.917 29.9269 84.591C29.5849 84.713 29.7369 84.629 29.5359 84.785C26.8179 84.13 25.8639 81.333 24.8529 78.932C22.2989 72.862 21.8239 63.09 24.0719 56.103C24.6539 54.294 27.2819 48.602 26.2179 46.931C25.7099 45.265 24.0339 44.301 23.0969 43.028C21.9359 41.454 20.7779 39.382 19.9729 37.564C17.8829 32.833 16.9069 27.52 14.7059 22.736C13.6529 20.449 11.8739 18.134 10.4129 16.102C8.79587 13.849 6.98387 12.19 5.72987 9.467C5.28387 8.499 4.67887 6.949 5.33887 5.954C5.54887 5.283 5.84687 5.003 6.50987 4.784C7.64187 3.911 10.7939 5.074 11.9719 5.563C15.1009 6.863 17.7129 8.101 20.3639 9.857C21.6349 10.701 22.9229 12.332 24.4609 12.784H26.2169C28.9639 13.415 32.0409 12.979 34.6079 13.759C39.1439 15.137 43.2089 17.282 46.8999 19.613C58.1459 26.715 67.3419 36.823 73.6319 48.882C74.6439 50.824 75.0819 52.676 75.9729 54.736C77.7709 58.889 80.0359 63.162 81.8249 67.224C83.6109 71.276 85.3509 75.365 87.8749 78.737C89.2019 80.509 94.3259 81.46 96.6559 82.445C98.2879 83.134 100.963 83.854 102.51 84.785C105.463 86.567 108.325 88.688 111.096 90.64C112.479 91.615 116.736 93.756 116.948 95.519ZM29.7289 21.178C28.2979 21.151 27.2859 21.334 26.2159 21.567V21.762H26.4109C27.0939 23.164 28.2989 24.068 29.1419 25.275C29.7919 26.642 30.4429 28.007 31.0939 29.372L31.2879 29.179C32.4969 28.326 33.0499 26.965 33.0429 24.885C32.5589 24.376 32.4879 23.738 32.0679 23.13C31.5119 22.319 30.4329 21.858 29.7289 21.178Z" fill="#7BD6FC"/>
</svg>
