<svg width="126" height="127" viewBox="0 0 126 127" fill="none" xmlns="http://www.w3.org/2000/svg">
<path fill-rule="evenodd" clip-rule="evenodd" d="M125.216 0.727037C88.993 0.716037 52.932 0.717037 16.708 0.717037C11.527 0.717037 6.257 0.713037 1.076 0.728037C0.748 0.729037 0 0.881037 0 0.964037V127H126V0.964037C126 0.881037 125.586 0.727037 125.216 0.727037ZM112.48 114.666C79.839 114.628 47.209 114.636 14.568 114.636C12.992 114.636 12.999 114.633 12.999 113.009V15.212C13 13.605 12.984 14 14.577 14H112.375C114.013 14 114 13.604 114 15.291V64.128C114 80.448 113.993 96.768 114.036 113.087C114.04 114.33 113.747 114.667 112.48 114.666ZM55.82 39.644C49.152 38.081 42.44 38.852 35.735 39.537C34.312 39.683 34.04 40.292 34.044 41.555C34.087 56.762 34 71.969 34 87.176V88H43V70.139C48 70.514 52.576 70.425 57.049 68.829C64.218 66.271 67.801 60.718 67.414 52.61C67.101 46.062 62.988 41.324 55.82 39.644ZM53.867 61.988C50.673 63.545 47.277 63.508 43.862 63.046C43.596 63.01 43.187 62.535 43.185 62.262C43.145 56.931 43.155 51.601 43.155 46.124C46.286 45.636 49.255 45.398 52.217 46.142C55.89 47.065 58.021 49.461 58.418 53.059C58.854 57.013 57.171 60.378 53.867 61.988ZM87.168 69.094C85.699 68.289 84.088 67.747 82.562 67.041C81.152 66.388 79.729 65.745 78.388 64.965C77.453 64.422 77.028 63.473 77.028 62.354C77.028 60.462 78.322 58.937 80.532 58.756C82.181 58.621 83.893 58.791 85.526 59.096C86.902 59.352 88.207 59.995 89.608 60.491L91.375 54.222C88.03 52.598 84.626 51.987 81.09 52.112C78.084 52.217 75.276 52.983 72.738 54.711C67.995 57.94 65.681 66.518 72.789 71.127C74.594 72.298 76.682 73.032 78.64 73.968C79.858 74.551 81.129 75.047 82.281 75.74C83.733 76.614 84.227 78.037 83.975 79.68C83.728 81.295 82.645 82.318 81.139 82.554C79.459 82.818 77.673 82.989 76.021 82.698C73.682 82.287 71.422 81.417 69.047 80.719C68.621 82.309 68.216 84.068 67.663 85.779C67.36 86.717 67.538 87.18 68.458 87.547C74.075 89.778 79.792 90.237 85.54 88.264C89.836 86.789 92.455 83.74 92.796 79.095C93.128 74.568 91.088 71.244 87.168 69.094Z" fill="#80B5E2"/>
</svg>
