<svg width="126" height="112" viewBox="0 0 126 112" fill="none" xmlns="http://www.w3.org/2000/svg">
<path d="M63.0004 67.4001C69.2964 67.4001 74.4004 62.2961 74.4004 56.0001C74.4004 49.7041 69.2964 44.6001 63.0004 44.6001C56.7043 44.6001 51.6004 49.7041 51.6004 56.0001C51.6004 62.2961 56.7043 67.4001 63.0004 67.4001Z" fill="#61DAFB"/>
<path d="M106.3 37.2001C104.1 36.4001 101.8 35.6001 99.4004 34.9001C100 32.5001 100.5 30.1001 100.9 27.8001C103 14.6001 100.7 5.3001 94.3004 1.7001C92.4004 0.600097 90.3004 0.100098 87.9004 0.100098C80.9004 0.100098 72.0004 5.3001 63.0004 14.0001C54.0004 5.3001 45.1004 0.100098 38.1004 0.100098C35.7004 0.100098 33.6004 0.600097 31.7004 1.7001C25.3004 5.4001 23.0004 14.7001 25.1004 27.8001C25.5004 30.1001 26.0004 32.5001 26.6004 34.9001C24.2004 35.6001 21.9004 36.3001 19.7004 37.2001C7.20039 42.0001 0.400391 48.6001 0.400391 56.0001C0.400391 63.4001 7.30039 70.0001 19.7004 74.8001C21.9004 75.6001 24.2004 76.4001 26.6004 77.1001C26.0004 79.5001 25.5004 81.9001 25.1004 84.2001C23.0004 97.4001 25.3004 106.7 31.7004 110.3C33.6004 111.4 35.7004 111.9 38.1004 111.9C45.2004 111.9 54.1004 106.7 63.0004 98.0001C72.0004 106.7 80.9004 111.9 87.9004 111.9C90.3004 111.9 92.4004 111.4 94.3004 110.3C100.7 106.6 103 97.3001 100.9 84.2001C100.5 81.9001 100 79.5001 99.4004 77.1001C101.8 76.4001 104.1 75.7001 106.3 74.8001C118.8 70.0001 125.6 63.4001 125.6 56.0001C125.6 48.6001 118.8 42.0001 106.3 37.2001ZM91.5004 6.7001C95.6004 9.1001 97.0004 16.5001 95.3004 27.0001C95.0004 29.1001 94.5004 31.3001 93.9004 33.6001C88.7004 32.4001 83.2004 31.6001 77.4004 31.1001C74.0004 26.3001 70.5004 22.0001 67.0004 18.1001C74.4004 10.8001 81.9004 5.8001 88.0004 5.8001C89.3004 5.8001 90.5004 6.1001 91.5004 6.7001ZM80.3004 66.0001C78.5004 69.2001 76.4004 72.4001 74.2004 75.6001C70.5004 75.9001 66.8004 76.0001 63.0004 76.0001C59.1004 76.0001 55.4004 75.9001 51.8004 75.6001C49.6004 72.4001 47.6004 69.2001 45.8004 66.0001C43.9004 62.7001 42.1004 59.3001 40.5004 56.0001C42.1004 52.7001 43.9004 49.3001 45.8004 46.0001C47.6004 42.8001 49.7004 39.6001 51.9004 36.4001C55.6004 36.1001 59.3004 36.0001 63.1004 36.0001C67.0004 36.0001 70.7004 36.1001 74.3004 36.4001C76.5004 39.6001 78.5004 42.8001 80.3004 46.0001C82.2004 49.3001 84.0004 52.7001 85.6004 56.0001C83.9004 59.3001 82.2004 62.6001 80.3004 66.0001ZM88.6004 62.7001C90.1004 66.2001 91.3004 69.6001 92.4004 73.0001C89.0004 73.8001 85.4004 74.4001 81.6004 74.9001C82.8004 73.0001 84.1004 71.0001 85.2004 68.9001C86.4004 66.8001 87.5004 64.7001 88.6004 62.7001ZM63.0004 89.8001C60.6004 87.2001 58.3004 84.4001 56.1004 81.5001C58.4004 81.6001 60.7004 81.7001 63.0004 81.7001C65.3004 81.7001 67.6004 81.6001 69.9004 81.5001C67.7004 84.4001 65.4004 87.2001 63.0004 89.8001ZM44.4004 74.8001C40.6004 74.3001 37.0004 73.7001 33.6004 72.9001C34.7004 69.6001 35.9004 66.1001 37.4004 62.6001C38.5004 64.6001 39.6004 66.7001 40.8004 68.7001C42.0004 70.9001 43.2004 72.8001 44.4004 74.8001ZM37.4004 49.3001C35.9004 45.8001 34.7004 42.4001 33.6004 39.0001C37.0004 38.2001 40.6004 37.6001 44.4004 37.1001C43.2004 39.0001 41.9004 41.0001 40.8004 43.1001C39.6004 45.2001 38.5004 47.3001 37.4004 49.3001ZM63.0004 22.2001C65.4004 24.8001 67.7004 27.6001 69.9004 30.5001C67.6004 30.4001 65.3004 30.3001 63.0004 30.3001C60.7004 30.3001 58.4004 30.4001 56.1004 30.5001C58.3004 27.6001 60.6004 24.8001 63.0004 22.2001ZM85.2004 43.2001L81.6004 37.2001C85.4004 37.7001 89.0004 38.3001 92.4004 39.1001C91.3004 42.4001 90.1004 45.9001 88.6004 49.4001C87.5004 47.3001 86.4004 45.2001 85.2004 43.2001ZM30.7004 27.0001C29.0004 16.5001 30.4004 9.1001 34.5004 6.7001C35.5004 6.1001 36.7004 5.8001 38.0004 5.8001C44.0004 5.8001 51.5004 10.7001 59.0004 18.1001C55.5004 21.9001 52.0004 26.3001 48.6004 31.1001C42.8004 31.6001 37.3004 32.5001 32.1004 33.6001C31.5004 31.3001 31.1004 29.1001 30.7004 27.0001ZM6.00039 56.0001C6.00039 51.3001 11.7004 46.3001 21.7004 42.6001C23.7004 41.8001 25.9004 41.1001 28.1004 40.5001C29.7004 45.5001 31.7004 50.8001 34.1004 56.1001C31.7004 61.4001 29.6004 66.6001 28.1004 71.6001C14.3004 67.6001 6.00039 61.6001 6.00039 56.0001ZM34.5004 105.3C30.4004 102.9 29.0004 95.5001 30.7004 85.0001C31.0004 82.9001 31.5004 80.7001 32.1004 78.4001C37.3004 79.6001 42.8004 80.4001 48.6004 80.9001C52.0004 85.7001 55.5004 90.0001 59.0004 93.9001C51.6004 101.2 44.1004 106.2 38.0004 106.2C36.7004 106.2 35.5004 105.9 34.5004 105.3ZM95.3004 85.0001C97.0004 95.5001 95.6004 102.9 91.5004 105.3C90.5004 105.9 89.3004 106.2 88.0004 106.2C82.0004 106.2 74.5004 101.3 67.0004 93.9001C70.5004 90.1001 74.0004 85.7001 77.4004 80.9001C83.2004 80.4001 88.7004 79.5001 93.9004 78.4001C94.5004 80.7001 94.9004 82.9001 95.3004 85.0001ZM104.3 69.4001C102.3 70.2001 100.1 70.9001 97.9004 71.5001C96.3004 66.5001 94.3004 61.2001 91.9004 55.9001C94.3004 50.6001 96.4004 45.4001 97.9004 40.4001C111.7 44.4001 120 50.4001 120 56.0001C120 60.7001 114.2 65.7001 104.3 69.4001Z" fill="#61DAFB"/>
</svg>
