<svg width="126" height="94" viewBox="0 0 126 94" fill="none" xmlns="http://www.w3.org/2000/svg">
<path fill-rule="evenodd" clip-rule="evenodd" d="M0.21875 39.156C0.21875 39.859 0.42575 40.323 0.54175 40.774C1.29775 43.707 2.92275 46.224 4.85075 48.52C7.59675 51.792 10.9597 54.426 14.4047 56.903C17.3927 59.051 20.4417 61.151 23.4417 63.283C23.9567 63.649 24.4438 64.07 25.0028 64.519C24.5218 64.779 24.1217 65.008 23.7057 65.219C19.7467 67.227 15.9378 69.478 12.4268 72.205C10.3108 73.849 8.26475 75.596 6.81975 77.879C4.49475 81.551 3.67175 85.463 5.40475 89.64C5.91075 90.86 6.68275 91.914 7.77175 92.693C8.12475 92.945 8.52075 93.195 8.93375 93.293C9.99175 93.542 11.0697 93.705 12.1407 93.902L15.1737 93.9C18.5278 93.601 21.5808 92.452 24.3398 90.548C28.6518 87.572 31.5567 83.582 32.8057 78.461C33.7137 74.739 33.7507 71.013 32.6807 67.308C32.5783 66.9648 32.4602 66.6264 32.3267 66.294C32.1967 65.961 32.0437 65.637 31.8637 65.222L38.7397 61.268L38.8427 61.356C38.7177 61.765 38.5847 62.173 38.4717 62.586C37.6547 65.57 37.1117 68.606 37.3067 71.703C37.5147 75.003 38.4357 78.092 40.3677 80.849C41.9297 83.079 45.6517 83.162 47.3117 80.924C47.9007 80.129 48.4717 79.298 48.9007 78.411C50.0217 76.096 51.0597 73.74 52.1307 71.4L52.3177 70.972C52.2407 72.08 52.1507 73.053 52.1097 74.027C52.0457 75.548 52.1347 77.06 52.6547 78.507C53.0997 79.745 53.8567 80.67 55.2747 80.833C56.2447 80.944 57.0177 80.5 57.7307 79.937C58.8353 79.0641 59.7509 77.9757 60.4217 76.738C62.3227 73.247 64.2747 69.777 65.9977 66.198C67.8617 62.327 69.4917 58.343 71.2227 54.406L71.5088 53.708C71.9178 55.315 72.2027 56.889 72.7277 58.379C73.3377 60.108 74.0927 61.796 74.9147 63.437C75.3037 64.212 75.2587 64.715 74.7197 65.365C72.4637 68.085 70.2467 70.838 68.0277 73.588C67.5367 74.195 67.0477 74.813 66.6387 75.476C66.3906 75.8947 66.2275 76.3582 66.1587 76.84C66.0899 77.2836 66.1955 77.7366 66.4533 78.104C66.7112 78.4715 67.1012 78.7248 67.5417 78.811C68.4308 79.0025 69.3425 79.0674 70.2497 79.004C73.3467 78.776 76.1587 77.689 78.6447 75.847C81.8657 73.461 82.8998 70.205 82.1198 66.346C81.9088 65.299 81.5357 64.281 81.1727 63.272C81.0097 62.817 80.9987 62.498 81.2957 62.074C83.8707 58.397 86.0707 54.496 88.1167 50.505C88.1977 50.348 88.2807 50.191 88.4227 50.023C89.0857 53.473 90.0837 56.798 91.8717 59.815C90.9597 60.694 90.0567 61.491 89.2397 62.369C87.4407 64.303 85.8807 66.403 85.0667 68.964C84.7167 70.068 84.4477 71.19 84.6037 72.369C84.8457 74.2 86.3458 75.39 88.1468 74.973C92.0008 74.081 95.3278 72.265 97.7588 69.048C99.3948 66.882 99.5437 64.466 98.8587 61.935C98.6707 61.247 98.4477 60.57 98.2077 59.781C99.1587 59.486 100.086 59.132 101.045 58.913C106.024 57.777 110.949 57.975 115.747 59.773C118.548 60.823 120.811 62.58 122.153 65.344C123.792 68.723 122.886 71.929 119.701 74.065C119.404 74.264 119.064 74.421 118.818 74.67C118.739 74.7613 118.68 74.8681 118.645 74.9834C118.609 75.0988 118.599 75.2202 118.613 75.34C118.634 75.463 118.959 75.617 119.146 75.615C120.193 75.607 121.042 75.058 121.857 74.494C123.899 73.081 125.389 71.18 125.71 68.677L125.773 68.489L125.696 66.859C125.665 66.765 125.719 66.672 125.712 66.601C125.278 62.956 123.331 60.129 120.499 57.913C117.219 55.348 113.346 54.292 109.25 54.125C105.928 53.982 102.61 54.4927 99.4847 55.628C98.5877 55.953 97.6987 56.338 96.7967 56.701C96.6757 56.482 96.5458 56.272 96.4388 56.055C95.5128 54.159 94.3907 52.347 94.1427 50.173C93.9667 48.629 93.7507 47.087 94.1177 45.56C94.4707 44.091 94.9307 42.647 95.3637 41.198C95.5867 40.452 95.4298 40.034 94.7178 39.698C94.4697 39.5743 94.2049 39.4874 93.9317 39.44C92.1817 39.186 90.4557 39.331 88.7607 39.824C88.1607 39.999 87.7248 40.335 87.5918 40.999C87.5158 41.38 87.3607 41.745 87.2527 42.121C86.8097 43.684 86.4957 45.277 85.7797 46.766C83.9857 50.501 81.9378 54.095 79.8418 57.663C79.6148 58.048 79.3757 58.426 79.0897 58.893C78.3537 57.353 77.5687 55.971 77.3307 54.351C77.0617 52.519 76.8497 50.69 77.3057 48.872C77.6447 47.516 78.0878 46.185 78.4958 44.847C78.6888 44.211 78.5998 43.877 78.0238 43.542C77.7328 43.373 77.4037 43.223 77.0757 43.174C75.2813 42.9007 73.4479 43.0507 71.7217 43.612C71.1787 43.788 70.8937 44.139 70.7277 44.699C70.2397 46.351 69.8237 48.043 69.1387 49.614C66.3647 55.974 63.5107 62.301 60.6597 68.627C60.0647 69.948 59.3677 71.223 58.6967 72.509C58.5267 72.835 58.2787 73.122 58.0667 73.428C57.8967 73.227 57.8307 73.089 57.8317 72.951C57.8367 72.138 57.7397 71.301 57.8947 70.515C58.3707 68.1378 58.8968 65.771 59.4727 63.416C59.9427 61.47 60.4897 59.542 61.0107 57.609C61.1857 56.962 61.1887 56.357 60.7237 55.813C59.9427 54.902 58.3107 54.702 57.3427 55.404L56.9147 55.646L56.9977 54.956C57.2017 53.477 57.2428 52.003 56.8368 50.546C56.3308 48.73 55.0347 47.685 53.1507 47.743C52.2727 47.77 51.3507 47.92 50.5377 48.24C47.1187 49.58 44.4897 51.953 42.2517 54.808C42.0443 55.0731 41.7872 55.2952 41.4947 55.462C38.6017 57.066 35.6997 58.65 32.7987 60.24L29.5697 62.009C28.7037 61.183 27.9168 60.326 27.0238 59.599C24.2968 57.375 21.5258 55.206 18.7798 53.007C16.3458 51.058 13.9878 49.028 12.1838 46.447C10.8418 44.527 9.97675 42.426 9.89375 40.052C9.78875 37.027 10.6468 34.263 12.1868 31.69C14.1568 28.398 16.8438 25.756 19.7978 23.363C22.9228 20.833 26.3027 18.685 29.8057 16.724C34.7067 13.981 39.7477 11.553 45.1527 9.95C50.6947 8.306 56.3177 7.365 62.1177 8.021C64.3977 8.279 66.6117 8.801 68.6447 9.916C70.2017 10.769 71.4787 11.886 72.0727 13.632C72.6587 15.35 72.6407 17.091 72.2347 18.836C71.4097 22.37 69.4747 25.283 67.0397 27.886C63.0457 32.153 58.1737 35.058 52.6887 36.977C49.535 38.0818 46.2538 38.7817 42.9237 39.06C40.1947 39.289 37.5227 39.047 34.9387 38.098C33.2277 37.469 31.7378 36.507 30.5398 35.111C30.3258 34.861 30.0518 34.59 29.6528 34.824C29.2618 35.054 29.1927 35.426 29.3237 35.803C29.5427 36.429 29.7448 37.081 30.0858 37.641C30.9428 39.046 32.1927 40.065 33.5687 40.939C36.2117 42.62 39.1657 43.185 42.2287 43.316C46.8767 43.517 51.4117 42.823 55.8827 41.576C62.2657 39.796 67.8157 36.652 72.2667 31.692C75.9727 27.562 78.6197 22.901 79.1867 17.273C79.4637 14.526 79.1688 11.835 77.8828 9.329C76.4878 6.614 74.2697 4.595 71.6177 3.204C67.7557 1.179 63.5877 0 59.2857 0H54.9757C49.7657 0 44.7287 1.493 39.8327 3.274C36.1267 4.623 32.4928 6.215 28.9648 7.977C21.2818 11.816 14.1267 16.445 8.24975 22.81C5.32175 25.981 2.84275 29.48 1.41675 33.6C0.986355 34.8301 0.61559 36.0802 0.30575 37.346M28.1448 73.359C27.8118 77.818 25.7908 81.433 22.4878 84.361C20.6298 86.007 18.4988 87.179 16.0168 87.591C15.1168 87.74 14.1958 87.776 13.3228 87.403C12.0778 86.871 11.7987 85.766 11.7747 84.589C11.7377 82.713 12.3947 81.017 13.2957 79.403C14.4717 77.299 16.1958 75.695 18.0368 74.197C20.9368 71.836 24.0828 69.838 27.3048 67.952L27.5478 67.852C28.0458 69.692 28.2828 71.509 28.1448 73.359ZM53.3027 53.98C53.0677 55.404 52.7737 56.829 52.3577 58.209C50.9197 62.986 49.0727 67.615 47.0757 72.182C46.7067 73.027 46.1697 73.798 45.7027 74.599C45.6233 74.7221 45.5282 74.8344 45.4197 74.933C44.8417 75.504 44.2937 75.474 44.0017 74.727C43.6617 73.859 43.4527 72.93 43.2727 72.011C43.1517 71.394 43.1807 70.746 43.1427 70.114C43.1817 65.62 44.5527 61.536 46.8787 57.734C47.8377 56.166 48.8817 54.672 50.4767 53.68C50.9729 53.3715 51.5098 53.1339 52.0717 52.974C52.9217 52.735 53.4437 53.128 53.3027 53.98ZM70.4668 75.848L76.6357 68.645C76.8927 71.32 72.3458 76.66 70.4668 75.848ZM90.1697 71.001C89.7337 71.251 89.2587 71.431 88.8117 71.662C88.4027 71.874 88.2677 71.66 88.2557 71.308C88.2497 71.0643 88.2811 70.8212 88.3487 70.587C89.1817 67.649 90.7148 65.141 92.9958 63.101L93.1557 63.019C94.2407 66.054 92.9867 69.387 90.1697 71.001Z" fill="#CB6699"/>
</svg>
