<svg width="128" height="78" viewBox="0 0 128 78" fill="none" xmlns="http://www.w3.org/2000/svg">
<path d="M64.0039 0.602051C46.9369 0.602051 36.2739 9.13205 32.0039 26.1991C38.4019 17.6681 45.8709 14.4691 54.4019 16.6021C59.2729 17.8161 62.7539 21.3481 66.6089 25.2621C72.8829 31.6291 80.1449 39.0001 96.0039 39.0001C113.07 39.0001 123.734 30.469 128.004 13.3981C121.605 21.9341 114.137 25.1331 105.605 23.0001C100.735 21.7851 97.2579 18.2541 93.3979 14.3401C87.1279 7.97305 79.8679 0.602051 64.0039 0.602051ZM32.0039 39.0001C14.9379 39.0001 4.27391 47.5311 0.00390625 64.6021C6.40191 56.0661 13.8699 52.8671 22.4019 55.0001C27.2729 56.2151 30.7539 59.7461 34.6089 63.6601C40.8829 70.0271 48.1449 77.3981 64.0039 77.3981C81.0699 77.3981 91.7339 68.8681 96.0039 51.8011C89.6049 60.3321 82.1369 63.5311 73.6049 61.3981C68.7349 60.1841 65.2579 56.6521 61.3979 52.7381C55.1279 46.3711 47.8679 39.0001 32.0039 39.0001Z" fill="#38B2AC"/>
</svg>
