<svg width="123" height="125" viewBox="0 0 123 125" fill="none" xmlns="http://www.w3.org/2000/svg">
<path d="M22.67 44H122.34V117.67H22.67V44Z" fill="white"/>
<path d="M-3 125H122V0H-3V125ZM97.73 57.5C100.724 58.1948 103.445 59.7606 105.55 62C106.709 63.2064 107.716 64.5497 108.55 66C108.55 66.16 103.15 69.81 99.86 71.85C99.74 71.93 99.26 71.41 98.73 70.62C98.1294 69.5837 97.276 68.7164 96.2496 68.0991C95.2231 67.4818 94.057 67.1346 92.86 67.09C89.07 66.83 86.63 68.82 86.65 72.09C86.6187 72.9041 86.8051 73.7119 87.19 74.43C88.02 76.16 89.57 77.19 94.43 79.29C103.38 83.14 107.21 85.68 109.59 89.29C112.25 93.29 112.84 99.75 111.04 104.53C109.04 109.73 104.14 113.26 97.21 114.43C94.0448 114.793 90.8468 114.759 87.69 114.33C82.8516 113.532 78.3948 111.209 74.97 107.7C73.82 106.43 71.58 103.12 71.72 102.88C72.0851 102.609 72.4694 102.365 72.87 102.15L77.5 99.59L81.09 97.51L81.84 98.62C83.1057 100.431 84.7166 101.973 86.58 103.16C90.58 105.26 96.04 104.97 98.74 102.54C99.6465 101.65 100.212 100.469 100.338 99.2049C100.464 97.9405 100.143 96.6719 99.43 95.62C98.43 94.23 96.43 93.06 90.84 90.62C84.39 87.84 81.61 86.12 79.07 83.38C77.4843 81.5719 76.3136 79.4386 75.64 77.13C75.1375 74.4924 75.0633 71.7912 75.42 69.13C76.75 62.9 81.42 58.55 88.24 57.26C91.3984 56.8692 94.5977 56.9569 97.73 57.52V57.5ZM68.39 62.74V67.86H52.16V114.09H40.65V67.85H24.38V62.85C24.3293 61.1258 24.3694 59.4 24.5 57.68C24.58 57.59 34.5 57.59 46.5 57.59H68.33L68.39 62.74Z" fill="#007ACC"/>
</svg>
