<svg width="120" height="120" viewBox="0 0 120 120" fill="none" xmlns="http://www.w3.org/2000/svg">
<path fill-rule="evenodd" clip-rule="evenodd" d="M59.9995 0C93.1326 0 120 26.8684 120 59.9995C120 93.1336 93.1316 120 59.9995 120C26.8674 120.001 0 93.1336 0 59.9995C0 26.8684 26.8674 0 59.9995 0ZM76.4791 6.34283C96.6141 13.0353 111.722 30.7542 114.632 52.3403L112.725 52.1362C112.386 53.5961 112.074 53.6333 112.074 55.3911C112.074 56.9419 114.027 57.98 114.027 61.2534C114.027 62.1304 111.968 63.8843 111.877 64.19L108.818 60.6021V65.1617L108.353 65.1441L107.529 56.7309L105.821 57.269L103.789 51.0102L97.0946 57.9975L97.0145 63.1138L94.8289 64.5796L92.5076 51.4565L91.1189 52.4711L87.9743 48.2279L83.2741 48.3676L81.4733 46.31L79.6305 46.8168L76.0055 42.6625L75.3053 43.139L77.5514 48.8793H80.1579V47.5766H81.4597C82.3991 50.1723 83.4138 48.6352 83.4138 50.183C83.4138 55.6001 76.7233 59.5825 72.3404 60.6021C72.5748 61.5816 72.484 62.5581 73.6422 62.5581C76.0963 62.5581 74.8766 62.1284 77.5514 61.9068C77.4274 67.441 71.2037 74.0504 68.5465 78.1706L69.7359 86.657C70.0494 88.4997 65.9087 90.45 64.5005 92.5252L65.1763 95.7762L63.2691 96.5467C62.9351 99.8866 59.6929 103.592 56.0561 103.592H52.1498C52.1498 99.0184 48.892 92.492 48.892 89.2605C48.892 86.5163 50.1938 86.1472 50.1938 82.7477C50.1938 79.6071 46.9389 75.1032 46.9389 74.2809V69.0699H44.3324C43.9457 67.6177 44.182 67.1168 42.3793 67.1168H41.7279C38.8822 67.1168 39.3626 68.4185 36.5169 68.4185H33.9104C31.5608 68.4185 27.3977 60.8784 27.3977 59.9507V52.1352C27.3977 48.7621 30.4846 45.0902 32.6087 43.6664V40.4115L35.5403 37.431L37.1683 37.1536C40.6634 37.1536 40.2484 35.2005 42.3793 35.2005H48.2426V39.7601L54.6879 42.5121L55.2954 39.7308C58.2163 40.4154 58.9761 41.7152 62.5747 41.7152H63.8765C66.3482 41.7152 66.481 38.4359 66.481 35.8538L61.2632 36.3694L58.9936 31.4241L56.7368 32.0247C57.1421 33.7942 57.3638 33.0589 57.3638 34.5511C57.3638 35.43 56.6401 35.5276 56.06 35.8538L53.8032 30.1262L48.9506 26.6604L48.3061 27.2932L52.4379 31.6409C51.8891 33.2005 51.8246 37.7044 49.5463 34.5501L51.6772 33.5247L46.3666 27.9592L43.1849 29.2034L40.0443 32.2112C39.7161 34.6341 39.056 35.8528 36.5208 35.8528C34.8333 35.8528 35.8519 35.4163 33.263 35.2015V28.6887H39.1243L37.2249 24.3508L36.5208 24.7805V23.4768L46.0394 19.088C45.8598 17.7218 45.641 18.4543 45.641 16.964C45.641 16.8751 46.2807 15.673 46.2924 15.6593L48.7543 17.1876L48.1654 14.3839L44.3675 15.1652L43.6625 11.7569C46.6742 10.171 53.3012 4.5889 55.4087 4.5889H57.3638C59.4214 4.5889 64.9331 6.61919 65.8296 7.84381L60.603 7.31451L64.481 10.5089L64.8531 9.14656L67.7476 8.35358L67.7828 6.54205H69.0875V8.49519L76.4791 6.34283ZM114.223 70.1519C114.072 70.9742 113.906 71.7887 113.723 72.5973L113.423 70.4957L114.223 70.1519ZM112.347 77.5377C112.203 77.9733 112.057 78.4108 111.902 78.8424H111.424V77.5377H112.347ZM11.4825 90.9968C7.94342 85.6325 5.29985 79.6286 3.75198 73.1979L14.3195 78.2936L14.3732 81.447C14.3732 82.6052 12.3956 85.07 11.7687 86.0066L11.4825 90.9968Z" fill="#CAFD36"/>
</svg>
