<svg width="126" height="126" viewBox="0 0 126 126" fill="none" xmlns="http://www.w3.org/2000/svg">
<path fill-rule="evenodd" clip-rule="evenodd" d="M63.0938 125.224C97.3688 125.172 125.115 97.291 125.115 62.899C125.115 29.066 97.4968 1.20202 64.5018 0.613024C29.8498 -0.00497606 0.893768 28.113 0.884768 62.21C0.874768 97.289 28.4968 125.274 63.0938 125.224ZM62.9928 3.63002C95.8998 3.61902 122.119 30.355 122.109 63.91C122.098 95.589 95.1838 122.09 63.0168 122.097C30.2458 122.104 3.89177 95.534 3.89277 62.489C3.89477 30.296 30.6588 3.64102 62.9928 3.63002ZM38.1568 34.896C38.6948 36.689 37.1888 37.313 35.5878 37.438C33.9028 37.568 32.2188 37.695 30.2628 37.844C36.7188 57.078 43.0778 76.027 49.5878 95.417C50.0518 94.658 50.2428 94.444 50.3268 94.194C53.9008 83.512 57.4948 72.837 60.9778 62.125C61.2958 61.148 61.1378 59.854 60.7898 58.85C58.9468 53.53 56.7388 48.326 55.1228 42.942C54.0178 39.256 52.5518 36.871 48.1948 37.298C47.4528 37.371 46.5468 35.774 45.7158 34.949C46.7208 34.349 47.7188 33.245 48.7328 33.23C57.6049 33.0937 66.4787 33.0964 75.3508 33.238C76.3688 33.255 77.3668 34.388 78.3718 35.003C77.4918 35.807 76.7328 37.013 75.7038 37.324C74.0528 37.822 72.2218 37.728 70.2458 37.904L89.5948 95.464C92.5258 85.728 95.2528 76.788 97.9048 67.825C100.271 59.824 98.8608 52.352 94.5828 45.305C93.2968 43.186 91.7168 41.13 90.9878 38.819C90.1598 36.19 89.4718 33.197 89.9108 30.56C90.6558 26.091 94.0848 23.872 98.7248 23.447C73.3328 -0.118975 33.4308 8.31702 18.7278 33.922C24.3878 33.661 29.7918 33.318 35.1998 33.244C36.2218 33.231 37.9168 34.095 38.1568 34.896ZM48.2738 112.867C48.1558 113.212 48.1488 113.596 48.0558 114.169C58.9988 117.203 69.7308 116.984 80.7148 113.283L63.9348 67.323C58.5648 82.934 53.4148 97.898 48.2738 112.867ZM39.8178 110.789L14.5368 41.439C3.13177 63.717 11.8078 97.707 39.8178 110.789ZM116.246 66.227C117.048 55.693 113.414 41.108 110.276 39.102C109.926 42.977 110.17 47.288 109.058 51.216C106.441 60.471 103.241 69.565 100.159 78.684C96.8088 88.596 93.3268 98.463 89.9018 108.35C105.994 98.811 114.837 84.732 116.246 66.227Z" fill="#E0E0E0"/>
</svg>
